/* XPM */
static char * vmeter_xpm[] = {
"64 64 7 1",
" 	c None",
".	c #FFFFFF",
"+	c #F9F9F9",
"@	c #000000",
"#	c #F0F0F0",
"$	c #ABABAB",
"%	c #CCCCCC",
"........................+  @@@@@@@@@@  +........................",
".....................  @@@@@@@@@@@@@@@@@@  .....................",
"..................  @@@@@@@@@@@@@@@@@@@@@@@@  ..................",
"................. @@@@@@@@@@@@@@@@@@@@@@@@@@@@ .................",
"............... @@@@@@@@@@@@@@    @@@@@@@@@@@@@@ ...............",
"............. @@@@@@@@@@  ............  @@@@@@@@@@ .............",
"............ @@@@@@@@ .................... @@@@@@@@ ............",
"........... @@@@@@@ ........................ @@@@@@@ ...........",
"......... @@@@@@@ ............................ @@@@@@@ .........",
"........ @@@@@@@ .............................. @@@@@@@ ........",
".......#@@@@@@@..................................@@@@@@@#.......",
"....... @@@@@ .................................... @@@@@ .......",
"...... @@@@@ ...................................... @@@@@ ......",
"..... @@@@@ ........................................ @@@@@ .....",
".... @@@@@ .......................................... @@@@@ ....",
".... @@@@@............................................@@@@@ ....",
"... @@@@@ ............................................ @@@@@ ...",
"...@@@@@ .............................................. @@@@@...",
".. @@@@@................................................@@@@@ ..",
"..@@@@@ ..............++................+............... @@@@@..",
"..@@@@@.............. @@@............. @@@ ..............@@@@@..",
". @@@@ .............. @@@ ............ @@@............... @@@@ .",
".@@@@@............... @@@ ............@@@ ................@@@@@.",
".@@@@@................@@@@ .......... @@@ ................@@@@@.",
" @@@@ ................ @@@ .......... @@@................. @@@@ ",
" @@@@..................@@@@..........@@@ ..................@@@@ ",
"@@@@@..................@@@@ ........ @@@...................@@@@@",
"@@@@@.................. @@@ ........ @@@...................@@@@@",
"@@@@ ...................@@@@........@@@ ................... @@@@",
"@@@@ ................... @@@ ...... @@@.................... @@@@",
"@@@@ ....................@@@ ......@@@@.................... @@@@",
"@@@@ ....................@@@@......@@@ .................... @@@@",
"@@@@ .................... @@@ .... @@@..................... @@@@",
"@@@@ .....................@@@@....@@@ ..................... @@@@",
"@@@@ ..................... @@@....@@@ ..................... @@@@",
"@@@@ ..................... @@@ .. @@@...................... @@@@",
"@@@@@......................@@@@..@@@ ......................@@@@@",
"@@@@@...................... @@@  @@@.......................@@@@@",
" @@@@.......................@@@@@@@@.......................@@@@ ",
" @@@@ ......................@@@@@@@ ...................... @@@@ ",
".@@@@@...................... @@@@@@.......................@@@@@.",
".@@@@@.......................@@@@@@.......................@@@@@.",
". @@@@ ...................... @@@@ ...................... @@@@ .",
"..@@@@@...................... @@@@.......................@@@@@..",
"..@@@@@ ......................    ...................... @@@@@..",
".. @@@@@................................................@@@@@ ..",
"...@@@@@ .............................................. @@@@@...",
"... @@@@@ ............................................ @@@@@ ...",
".... @@@@@............................................@@@@@ ....",
".... @@@@@ .......................................... @@@@@ ....",
"..... @@@@@ ........................................ @@@@@ .....",
"...... @@@@@ ...................................... @@@@@ ......",
"....... @@@@@ .................................... @@@@@ .......",
".......#@@@@@@@..................................@@@@@@@$.......",
"........ @@@@@@@ .............................. @@@@@@@ ........",
"......... @@@@@@@ ............................ @@@@@@@ .........",
"........... @@@@@@@ ........................ @@@@@@@ ...........",
"............ @@@@@@@@ .................... @@@@@@@@ ............",
"............. @@@@@@@@@@  ............  @@@@@@@@@@ .............",
"............... @@@@@@@@@@@@@@    @@@@@@@@@@@@@@ ...............",
"................. @@@@@@@@@@@@@@@@@@@@@@@@@@@@ .................",
"..................  @@@@@@@@@@@@@@@@@@@@@@@@  ..................",
".....................  @@@@@@@@@@@@@@@@@@  .....................",
"........................+  @@@@@@@@@@  %........................"};
